<mxfile host="65bd71144e">
    <diagram id="qbq2_7LXIJCdXbT7dW2O" name="Page-1">
        <mxGraphModel dx="950" dy="793" grid="1" gridSize="10" guides="1" tooltips="1" connect="1" arrows="1" fold="1" page="1" pageScale="1" pageWidth="827" pageHeight="1169" math="0" shadow="0">
            <root>
                <mxCell id="0"/>
                <mxCell id="1" parent="0"/>
                <mxCell id="7" value="Local Machine" style="rounded=1;whiteSpace=wrap;html=1;shadow=0;strokeColor=#006EAF;strokeWidth=3;align=left;verticalAlign=top;sketch=1;curveFitting=1;jiggle=2;fillColor=#1ba1e2;fontColor=#ffffff;fontSize=15;" vertex="1" parent="1">
                    <mxGeometry x="200" y="290" width="330" height="270" as="geometry"/>
                </mxCell>
                <mxCell id="4" value="" style="edgeStyle=none;html=1;strokeColor=#605757;strokeWidth=3;" edge="1" parent="1" source="2" target="3">
                    <mxGeometry relative="1" as="geometry"/>
                </mxCell>
                <mxCell id="2" value="Slack Client" style="rounded=0;whiteSpace=wrap;html=1;strokeWidth=3;sketch=1;curveFitting=1;jiggle=2;strokeColor=#a20125;" vertex="1" parent="1">
                    <mxGeometry x="40" y="135" width="110" height="60" as="geometry"/>
                </mxCell>
                <mxCell id="3" value="" style="ellipse;shape=cloud;whiteSpace=wrap;html=1;sketch=1;strokeColor=#85828c;strokeWidth=3;shadow=0;" vertex="1" parent="1">
                    <mxGeometry x="230" y="90" width="220" height="150" as="geometry"/>
                </mxCell>
                <mxCell id="5" value="Slack App" style="rounded=0;whiteSpace=wrap;html=1;strokeWidth=3;sketch=1;curveFitting=1;jiggle=2;" vertex="1" parent="1">
                    <mxGeometry x="300" y="330" width="110" height="60" as="geometry"/>
                </mxCell>
                <mxCell id="6" value="" style="edgeStyle=none;html=1;strokeColor=#605757;strokeWidth=3;entryX=0.55;entryY=0.95;entryDx=0;entryDy=0;entryPerimeter=0;exitX=0.5;exitY=0;exitDx=0;exitDy=0;endArrow=none;endFill=0;" edge="1" parent="1" source="5" target="3">
                    <mxGeometry relative="1" as="geometry">
                        <mxPoint x="160" y="175" as="sourcePoint"/>
                        <mxPoint x="240" y="175" as="targetPoint"/>
                    </mxGeometry>
                </mxCell>
                <mxCell id="8" value="Local LLM" style="rounded=0;whiteSpace=wrap;html=1;strokeWidth=3;sketch=1;curveFitting=1;jiggle=2;" vertex="1" parent="1">
                    <mxGeometry x="305" y="450" width="110" height="60" as="geometry"/>
                </mxCell>
                <mxCell id="9" value="" style="edgeStyle=none;html=1;strokeColor=#605757;strokeWidth=3;exitX=0.5;exitY=0;exitDx=0;exitDy=0;endArrow=none;endFill=0;" edge="1" parent="1" source="8">
                    <mxGeometry relative="1" as="geometry">
                        <mxPoint x="365" y="340" as="sourcePoint"/>
                        <mxPoint x="360" y="390" as="targetPoint"/>
                    </mxGeometry>
                </mxCell>
            </root>
        </mxGraphModel>
    </diagram>
</mxfile>